<svg width="40" height="40" viewBox="0 0 40 40" fill="none" xmlns="http://www.w3.org/2000/svg">
<path d="M33.3333 20V36.6667H6.66663V20" fill="url(#paint0_linear_1_371)"/>
<path d="M36.6667 11.6667H3.33337V20H36.6667V11.6667Z" fill="url(#paint1_linear_1_371)"/>
<path d="M20 36.6667V11.6667" stroke="#3F3B3B" stroke-width="2" stroke-linecap="round" stroke-linejoin="round"/>
<path d="M20 11.6666H12.5C11.395 11.6666 10.3352 11.2277 9.55376 10.4463C8.77236 9.66486 8.33337 8.60505 8.33337 7.49998C8.33337 6.39491 8.77236 5.3351 9.55376 4.5537C10.3352 3.7723 11.395 3.33331 12.5 3.33331C18.3334 3.33331 20 11.6666 20 11.6666Z" stroke="#3F3B3B" stroke-width="2" stroke-linecap="round" stroke-linejoin="round"/>
<path d="M20 11.6666H27.5C28.6051 11.6666 29.6649 11.2277 30.4463 10.4463C31.2277 9.66486 31.6667 8.60505 31.6667 7.49998C31.6667 6.39491 31.2277 5.3351 30.4463 4.5537C29.6649 3.7723 28.6051 3.33331 27.5 3.33331C21.6667 3.33331 20 11.6666 20 11.6666Z" stroke="#3F3B3B" stroke-width="2" stroke-linecap="round" stroke-linejoin="round"/>
<defs>
<linearGradient id="paint0_linear_1_371" x1="6.99994" y1="13.5" x2="32.9999" y2="37" gradientUnits="userSpaceOnUse">
<stop stop-color="#E15654"/>
<stop offset="1" stop-color="#FF8C42"/>
</linearGradient>
<linearGradient id="paint1_linear_1_371" x1="5.50006" y1="12.0001" x2="33.0001" y2="35.0001" gradientUnits="userSpaceOnUse">
<stop stop-color="#2BEE56"/>
<stop offset="1" stop-color="#FF8C42"/>
</linearGradient>
</defs>
</svg>
